<svg width="61" height="25" viewBox="0 0 61 25" fill="none" xmlns="http://www.w3.org/2000/svg">
<g filter="url(#filter0_d_232_946)">
<path d="M14.9833 8.856C15.6553 9.832 15.9913 10.92 15.9913 12.12C15.9913 13.736 15.4153 15.12 14.2633 16.272C13.1113 17.424 11.7273 18 10.1113 18H4.23125V1.2H8.43125C9.58325 1.2 10.5673 1.616 11.3833 2.448C12.2153 3.264 12.6313 4.248 12.6313 5.4C12.6313 6.152 12.4393 6.856 12.0553 7.512C12.5353 7.528 13.0713 7.648 13.6633 7.872C14.2553 8.096 14.6953 8.424 14.9833 8.856ZM7.59125 4.56V7.056H8.43125C8.68725 7.056 8.88725 6.904 9.03125 6.6C9.19125 6.296 9.27125 5.984 9.27125 5.664C9.27125 5.36 9.19925 5.104 9.05525 4.896C8.91125 4.672 8.70325 4.56 8.43125 4.56H7.59125ZM10.1113 14.64C10.7993 14.64 11.3913 14.4 11.8873 13.92C12.3833 13.424 12.6313 12.824 12.6313 12.12C12.6313 11.928 12.5833 11.744 12.4873 11.568C12.4073 11.376 12.2713 11.192 12.0793 11.016C11.9033 10.84 11.6393 10.696 11.2873 10.584C10.9513 10.472 10.5593 10.416 10.1113 10.416H7.59125V14.64H10.1113ZM24.5315 8.472C25.0595 8.616 25.6115 8.864 26.1875 9.216C26.7795 9.568 27.3075 10.048 27.7715 10.656C28.2355 11.248 28.4675 12.016 28.4675 12.96C28.4675 14.352 27.9715 15.544 26.9795 16.536C26.0035 17.512 24.8195 18 23.4275 18C22.0355 18 20.8435 17.512 19.8515 16.536C18.8755 15.544 18.3875 14.352 18.3875 12.96H21.7475C21.7475 13.424 21.9075 13.824 22.2275 14.16C22.5635 14.48 22.9635 14.64 23.4275 14.64C23.8915 14.64 24.2835 14.48 24.6035 14.16C24.9395 13.824 25.1075 13.424 25.1075 12.96C25.1075 12.256 24.8275 11.792 24.2675 11.568C23.6755 11.36 23.2915 11.224 23.1155 11.16C22.9395 11.096 22.6355 10.992 22.2035 10.848C21.6915 10.672 21.1475 10.4 20.5715 10.032C20.0115 9.648 19.5075 9.152 19.0595 8.544C18.6115 7.92 18.3875 7.152 18.3875 6.24C18.3875 4.848 18.8755 3.664 19.8515 2.688C20.8435 1.696 22.0355 1.2 23.4275 1.2C24.8195 1.2 26.0035 1.696 26.9795 2.688C27.9715 3.664 28.4675 4.848 28.4675 6.24H25.1075C25.1075 5.776 24.9395 5.384 24.6035 5.064C24.2835 4.728 23.8915 4.56 23.4275 4.56C22.9635 4.56 22.5635 4.728 22.2275 5.064C21.9075 5.384 21.7475 5.776 21.7475 6.24C21.7475 6.832 21.9875 7.288 22.4675 7.608C22.9635 7.912 23.3315 8.096 23.5715 8.16C23.6995 8.208 24.0195 8.312 24.5315 8.472ZM37.0003 8.472C37.5283 8.616 38.0803 8.864 38.6563 9.216C39.2483 9.568 39.7763 10.048 40.2403 10.656C40.7043 11.248 40.9363 12.016 40.9363 12.96C40.9363 14.352 40.4403 15.544 39.4483 16.536C38.4723 17.512 37.2883 18 35.8963 18C34.5043 18 33.3123 17.512 32.3203 16.536C31.3443 15.544 30.8563 14.352 30.8563 12.96H34.2163C34.2163 13.424 34.3763 13.824 34.6963 14.16C35.0323 14.48 35.4323 14.64 35.8963 14.64C36.3603 14.64 36.7523 14.48 37.0723 14.16C37.4083 13.824 37.5763 13.424 37.5763 12.96C37.5763 12.256 37.2963 11.792 36.7363 11.568C36.1443 11.36 35.7603 11.224 35.5843 11.16C35.4083 11.096 35.1043 10.992 34.6723 10.848C34.1603 10.672 33.6163 10.4 33.0403 10.032C32.4803 9.648 31.9763 9.152 31.5283 8.544C31.0803 7.92 30.8563 7.152 30.8563 6.24C30.8563 4.848 31.3443 3.664 32.3203 2.688C33.3123 1.696 34.5043 1.2 35.8963 1.2C37.2883 1.2 38.4723 1.696 39.4483 2.688C40.4403 3.664 40.9363 4.848 40.9363 6.24H37.5763C37.5763 5.776 37.4083 5.384 37.0723 5.064C36.7523 4.728 36.3603 4.56 35.8963 4.56C35.4323 4.56 35.0323 4.728 34.6963 5.064C34.3763 5.384 34.2163 5.776 34.2163 6.24C34.2163 6.832 34.4563 7.288 34.9363 7.608C35.4323 7.912 35.8003 8.096 36.0403 8.16C36.1683 8.208 36.4883 8.312 37.0003 8.472ZM52.925 1.2H56.765L53.069 7.32L51.365 4.104L52.925 1.2ZM47.141 1.2L48.725 4.104L51.725 9.672V18H48.365V10.464L43.325 1.2H47.141Z" fill="#010101" fill-opacity="0.75" shape-rendering="crispEdges"/>
</g>
<defs>
<filter id="filter0_d_232_946" x="0.231201" y="0.199951" width="60.5337" height="24.8" filterUnits="userSpaceOnUse" color-interpolation-filters="sRGB">
<feFlood flood-opacity="0" result="BackgroundImageFix"/>
<feColorMatrix in="SourceAlpha" type="matrix" values="0 0 0 0 0 0 0 0 0 0 0 0 0 0 0 0 0 0 127 0" result="hardAlpha"/>
<feOffset dy="3"/>
<feGaussianBlur stdDeviation="2"/>
<feComposite in2="hardAlpha" operator="out"/>
<feColorMatrix type="matrix" values="0 0 0 0 0 0 0 0 0 0 0 0 0 0 0 0 0 0 0.25 0"/>
<feBlend mode="normal" in2="BackgroundImageFix" result="effect1_dropShadow_232_946"/>
<feBlend mode="normal" in="SourceGraphic" in2="effect1_dropShadow_232_946" result="shape"/>
</filter>
</defs>
</svg>
