<svg width="397" height="50" viewBox="0 0 397 50" fill="none" xmlns="http://www.w3.org/2000/svg">
<g filter="url(#filter0_d_231_422)">
<path d="M34.4471 20.664C36.0151 22.9413 36.7991 25.48 36.7991 28.28C36.7991 32.0507 35.4551 35.28 32.7671 37.968C30.0791 40.656 26.8497 42 23.0791 42H9.35907V2.8H19.1591C21.8471 2.8 24.1431 3.77066 26.0471 5.712C27.9884 7.616 28.9591 9.912 28.9591 12.6C28.9591 14.3547 28.5111 15.9973 27.6151 17.528C28.7351 17.5653 29.9857 17.8453 31.3671 18.368C32.7484 18.8907 33.7751 19.656 34.4471 20.664ZM17.1991 10.64V16.464H19.1591C19.7564 16.464 20.2231 16.1093 20.5591 15.4C20.9324 14.6907 21.1191 13.9627 21.1191 13.216C21.1191 12.5067 20.9511 11.9093 20.6151 11.424C20.2791 10.9013 19.7937 10.64 19.1591 10.64H17.1991ZM23.0791 34.16C24.6844 34.16 26.0657 33.6 27.2231 32.48C28.3804 31.3227 28.9591 29.9227 28.9591 28.28C28.9591 27.832 28.8471 27.4027 28.6231 26.992C28.4364 26.544 28.1191 26.1147 27.6711 25.704C27.2604 25.2933 26.6444 24.9573 25.8231 24.696C25.0391 24.4347 24.1244 24.304 23.0791 24.304H17.1991V34.16H23.0791ZM53.5903 42H45.7503V2.8H53.5903V42ZM101.371 18.48C101.633 19.712 101.763 21.0187 101.763 22.4C101.763 27.8133 99.8408 32.4427 95.9954 36.288C92.1501 40.096 87.5394 42 82.1634 42C76.7501 42 72.1208 40.096 68.2754 36.288C64.4674 32.4427 62.5634 27.8133 62.5634 22.4C62.5634 17.024 64.4674 12.4133 68.2754 8.568C72.1208 4.72266 76.7501 2.8 82.1634 2.8C84.8514 2.8 87.3714 3.32266 89.7234 4.368C92.1128 5.376 94.2221 6.75733 96.0514 8.512L90.5074 14.112C88.1554 11.7973 85.3741 10.64 82.1634 10.64C78.9154 10.64 76.1341 11.7973 73.8194 14.112C71.5421 16.4267 70.4034 19.1893 70.4034 22.4C70.4034 25.648 71.5421 28.4293 73.8194 30.744C76.1341 33.0213 78.9154 34.16 82.1634 34.16C84.7021 34.16 86.9794 33.432 88.9954 31.976C91.0114 30.4827 92.4301 28.5973 93.2514 26.32H82.1634V18.48H101.371ZM144.651 19.768C145.883 20.104 147.171 20.6827 148.515 21.504C149.896 22.3253 151.128 23.4453 152.211 24.864C153.293 26.2453 153.835 28.0373 153.835 30.24C153.835 33.488 152.677 36.2693 150.363 38.584C148.085 40.8613 145.323 42 142.075 42C138.827 42 136.045 40.8613 133.731 38.584C131.453 36.2693 130.315 33.488 130.315 30.24H138.155C138.155 31.3227 138.528 32.256 139.275 33.04C140.059 33.7867 140.992 34.16 142.075 34.16C143.157 34.16 144.072 33.7867 144.819 33.04C145.603 32.256 145.995 31.3227 145.995 30.24C145.995 28.5973 145.341 27.5147 144.035 26.992C142.653 26.5067 141.757 26.1893 141.347 26.04C140.936 25.8907 140.227 25.648 139.219 25.312C138.024 24.9013 136.755 24.2667 135.411 23.408C134.104 22.512 132.928 21.3547 131.883 19.936C130.837 18.48 130.315 16.688 130.315 14.56C130.315 11.312 131.453 8.54933 133.731 6.272C136.045 3.95733 138.827 2.8 142.075 2.8C145.323 2.8 148.085 3.95733 150.363 6.272C152.677 8.54933 153.835 11.312 153.835 14.56H145.995C145.995 13.4773 145.603 12.5627 144.819 11.816C144.072 11.032 143.157 10.64 142.075 10.64C140.992 10.64 140.059 11.032 139.275 11.816C138.528 12.5627 138.155 13.4773 138.155 14.56C138.155 15.9413 138.715 17.0053 139.835 17.752C140.992 18.4613 141.851 18.8907 142.411 19.04C142.709 19.152 143.456 19.3947 144.651 19.768ZM182.368 2.8H190.208V42H182.368V26.32H170.608V42H162.768V2.8H170.608V18.48H182.368V2.8ZM218.76 2.8C224.136 2.8 228.746 4.72266 232.592 8.568C236.437 12.4133 238.36 17.024 238.36 22.4C238.36 27.8133 236.437 32.4427 232.592 36.288C228.746 40.096 224.136 42 218.76 42C213.346 42 208.717 40.096 204.872 36.288C201.064 32.4427 199.16 27.8133 199.16 22.4C199.16 17.024 201.064 12.4133 204.872 8.568C208.717 4.72266 213.346 2.8 218.76 2.8ZM218.76 34.16C221.97 34.16 224.733 33.0213 227.048 30.744C229.362 28.4293 230.52 25.648 230.52 22.4C230.52 19.1893 229.362 16.4267 227.048 14.112C224.733 11.7973 221.97 10.64 218.76 10.64C215.512 10.64 212.73 11.7973 210.416 14.112C208.138 16.4267 207 19.1893 207 22.4C207 25.648 208.138 28.4293 210.416 30.744C212.73 33.0213 215.512 34.16 218.76 34.16ZM255.149 26.32V34.16H270.829L267.693 42H247.309V2.8H270.829L267.693 10.64H255.149V18.48H266.909L263.773 26.32H255.149ZM294.099 19.768C295.331 20.104 296.619 20.6827 297.963 21.504C299.344 22.3253 300.576 23.4453 301.659 24.864C302.741 26.2453 303.283 28.0373 303.283 30.24C303.283 33.488 302.125 36.2693 299.811 38.584C297.533 40.8613 294.771 42 291.523 42C288.275 42 285.493 40.8613 283.179 38.584C280.901 36.2693 279.763 33.488 279.763 30.24H287.603C287.603 31.3227 287.976 32.256 288.723 33.04C289.507 33.7867 290.44 34.16 291.523 34.16C292.605 34.16 293.52 33.7867 294.267 33.04C295.051 32.256 295.443 31.3227 295.443 30.24C295.443 28.5973 294.789 27.5147 293.483 26.992C292.101 26.5067 291.205 26.1893 290.795 26.04C290.384 25.8907 289.675 25.648 288.667 25.312C287.472 24.9013 286.203 24.2667 284.859 23.408C283.552 22.512 282.376 21.3547 281.331 19.936C280.285 18.48 279.763 16.688 279.763 14.56C279.763 11.312 280.901 8.54933 283.179 6.272C285.493 3.95733 288.275 2.8 291.523 2.8C294.771 2.8 297.533 3.95733 299.811 6.272C302.125 8.54933 303.283 11.312 303.283 14.56H295.443C295.443 13.4773 295.051 12.5627 294.267 11.816C293.52 11.032 292.605 10.64 291.523 10.64C290.44 10.64 289.507 11.032 288.723 11.816C287.976 12.5627 287.603 13.4773 287.603 14.56C287.603 15.9413 288.163 17.0053 289.283 17.752C290.44 18.4613 291.299 18.8907 291.859 19.04C292.157 19.152 292.904 19.3947 294.099 19.768ZM346.154 19.768C347.386 20.104 348.674 20.6827 350.018 21.504C351.4 22.3253 352.632 23.4453 353.714 24.864C354.797 26.2453 355.338 28.0373 355.338 30.24C355.338 33.488 354.181 36.2693 351.866 38.584C349.589 40.8613 346.826 42 343.578 42C340.33 42 337.549 40.8613 335.234 38.584C332.957 36.2693 331.818 33.488 331.818 30.24H339.658C339.658 31.3227 340.032 32.256 340.778 33.04C341.562 33.7867 342.496 34.16 343.578 34.16C344.661 34.16 345.576 33.7867 346.322 33.04C347.106 32.256 347.498 31.3227 347.498 30.24C347.498 28.5973 346.845 27.5147 345.538 26.992C344.157 26.5067 343.261 26.1893 342.85 26.04C342.44 25.8907 341.73 25.648 340.722 25.312C339.528 24.9013 338.258 24.2667 336.914 23.408C335.608 22.512 334.432 21.3547 333.386 19.936C332.341 18.48 331.818 16.688 331.818 14.56C331.818 11.312 332.957 8.54933 335.234 6.272C337.549 3.95733 340.33 2.8 343.578 2.8C346.826 2.8 349.589 3.95733 351.866 6.272C354.181 8.54933 355.338 11.312 355.338 14.56H347.498C347.498 13.4773 347.106 12.5627 346.322 11.816C345.576 11.032 344.661 10.64 343.578 10.64C342.496 10.64 341.562 11.032 340.778 11.816C340.032 12.5627 339.658 13.4773 339.658 14.56C339.658 15.9413 340.218 17.0053 341.338 17.752C342.496 18.4613 343.354 18.8907 343.914 19.04C344.213 19.152 344.96 19.3947 346.154 19.768ZM386.672 2.8H395.632L387.008 17.08L383.032 9.576L386.672 2.8ZM373.176 2.8L376.872 9.576L383.872 22.568V42H376.032V24.416L364.272 2.8H373.176Z" fill="#165164"/>
</g>
<defs>
<filter id="filter0_d_231_422" x="0.35907" y="0.800003" width="396.273" height="49.2" filterUnits="userSpaceOnUse" color-interpolation-filters="sRGB">
<feFlood flood-opacity="0" result="BackgroundImageFix"/>
<feColorMatrix in="SourceAlpha" type="matrix" values="0 0 0 0 0 0 0 0 0 0 0 0 0 0 0 0 0 0 127 0" result="hardAlpha"/>
<feOffset dx="-4" dy="3"/>
<feGaussianBlur stdDeviation="2.5"/>
<feComposite in2="hardAlpha" operator="out"/>
<feColorMatrix type="matrix" values="0 0 0 0 0 0 0 0 0 0 0 0 0 0 0 0 0 0 0.25 0"/>
<feBlend mode="normal" in2="BackgroundImageFix" result="effect1_dropShadow_231_422"/>
<feBlend mode="normal" in="SourceGraphic" in2="effect1_dropShadow_231_422" result="shape"/>
</filter>
</defs>
</svg>
